# xmcd
#
# Track frame offsets: 
#        150
#        17455
#        32132
#        44202
#        60635
#        70670
#        86582
#        100880
#        112575
#        127627
#        145695
#        159225
#        174115
#        188385
#        203315
#        225597
#
# Disc length: 3190 seconds
#
# Revision: 2
# Processed by: cddbd v1.5.2PL0 Copyright (c) Steve Scherf et al.
# Submitted via: ExactAudioCopy v0.95b4
#
DISCID=b10c7410
DTITLE=Dolly Parton - Legends [CD3]
DYEAR=2005
DGENRE=Country
TTITLE0=Great Balls Of Fire
TTITLE1=Almost In love
TTITLE2=To Daddy
TTITLE3=She Don't Love You (Like I Love You)
TTITLE4=Travelling Man
TTITLE5=Heartbreaker
TTITLE6=I Really Got The Feeling
TTITLE7=The Last Thing On My Mind (with Porter Wagoner)
TTITLE8=Tie Our Love (In A Double Knot)
TTITLE9=Do I Ever Cross Your Mind
TTITLE10=I Really Don't Want To Know (with Willie Nelson)
TTITLE11=We'll Sing In The Sunshine
TTITLE12=Mule Skinner Blues
TTITLE13=Downtown
TTITLE14=Light Of A Clear Blue Morning
TTITLE15=Joshua
EXTD=
EXTT0=
EXTT1=
EXTT2=
EXTT3=
EXTT4=
EXTT5=
EXTT6=
EXTT7=
EXTT8=
EXTT9=
EXTT10=
EXTT11=
EXTT12=
EXTT13=
EXTT14=
EXTT15=
PLAYORDER=
